<svg width="28" height="28" viewBox="0 0 28 28" fill="none" xmlns="http://www.w3.org/2000/svg">
<path d="M17.5553 2.88687H7.39004C6.79093 2.88687 6.21636 3.12487 5.79273 3.5485C5.3691 3.97213 5.1311 4.5467 5.1311 5.14581V23.2173C5.1311 23.8164 5.3691 24.391 5.79273 24.8146C6.21636 25.2382 6.79093 25.4762 7.39004 25.4762H20.9437C21.5428 25.4762 22.1173 25.2382 22.541 24.8146C22.9646 24.391 23.2026 23.8164 23.2026 23.2173V8.53421L17.5553 2.88687Z" stroke="#2563EB" stroke-width="2.25894" stroke-linecap="round" stroke-linejoin="round"/>
<path d="M16.4248 2.88687V7.40474C16.4248 8.00385 16.6628 8.57842 17.0864 9.00205C17.5101 9.42569 18.0846 9.66368 18.6837 9.66368H23.2016" stroke="#2563EB" stroke-width="2.25894" stroke-linecap="round" stroke-linejoin="round"/>
<path d="M11.9071 10.7931H9.64819" stroke="#2563EB" stroke-width="2.25894" stroke-linecap="round" stroke-linejoin="round"/>
<path d="M18.6839 15.3109H9.64819" stroke="#2563EB" stroke-width="2.25894" stroke-linecap="round" stroke-linejoin="round"/>
<path d="M18.6839 19.8289H9.64819" stroke="#2563EB" stroke-width="2.25894" stroke-linecap="round" stroke-linejoin="round"/>
</svg>
